<svg viewBox="0 0 240 240" width="240" height="240" xmlns="http://www.w3.org/2000/svg" role="img" aria-label="first">
  <defs>
    <linearGradient id="brewSky" x1="0" y1="0" x2="0" y2="1">
      <stop offset="0" stop-color="#5FA96E"></stop>
      <stop offset="0.5" stop-color="#6E7C36"></stop>
      <stop offset="1" stop-color="#33291B"></stop>
    </linearGradient>
    <clipPath id="brewSq"><rect x="8" y="8" width="224" height="224" rx="52"></rect></clipPath>
  </defs>
  <rect x="8" y="8" width="224" height="224" rx="52" fill="url(#brewSky)"></rect>
  <g clip-path="url(#brewSq)">
    <ellipse cx="120" cy="26" rx="150" ry="70" fill="#CFE0A8" opacity="0.28"></ellipse>
    <ellipse cx="120" cy="240" rx="150" ry="82" fill="#241D12" opacity="0.4"></ellipse>
  </g>
  <g transform="translate(59,50) scale(1.24)">
    <ellipse cx="50" cy="66" rx="26" ry="21" fill="#F1F0E4"></ellipse>
    <path d="M50 48 C 43 58, 57 74, 50 85" fill="none" stroke="#A9B77F" stroke-width="4" stroke-linecap="round"></path>
    <path d="M50 50 C 50 42, 50 38, 50 32" fill="none" stroke="#F1F0E4" stroke-width="4" stroke-linecap="round"></path>
    <path d="M50 40 C 41 39, 33 31, 37 22 C 47 24, 50 32, 50 40 Z" fill="#DCE8C4"></path>
    <path d="M50 38 C 59 37, 67 29, 63 20 C 53 22, 50 30, 50 38 Z" fill="#F1F0E4"></path>
  </g>
</svg>